<?xml version="1.0" encoding="UTF-8" standalone="no"?>
<!-- Created with Inkscape (http://www.inkscape.org/) -->

<svg
   xmlns:dc="http://purl.org/dc/elements/1.1/"
   xmlns:cc="http://creativecommons.org/ns#"
   xmlns:rdf="http://www.w3.org/1999/02/22-rdf-syntax-ns#"
   xmlns:svg="http://www.w3.org/2000/svg"
   xmlns="http://www.w3.org/2000/svg"
   version="1.1"
   width="73.394073"
   height="74.074081"
   viewBox="-8 -10 100 100"
   id="arrow-prev"
   xml:space="preserve"><metadata
     id="metadata15"><rdf:RDF><cc:Work
         rdf:about=""><dc:format>image/svg+xml</dc:format><dc:type
           rdf:resource="http://purl.org/dc/dcmitype/StillImage" /><dc:title></dc:title></cc:Work></rdf:RDF></metadata><defs
     id="defs13" /><path
     d="m 41.748537,-9.9999879 c -27.342,-0.019 -49.5129993,22.3749999 -49.5399993,49.9729999 0.027,27.641 22.1979993,50.034 49.5399993,50.027 27.352,0.007 49.521,-22.386 49.542,-50.027 -0.02,-27.598 -22.19,-49.992 -49.542,-49.9729999 z m 0,88.4769999 c -21.037,0 -38.0949993,-17.228 -38.0769993,-38.504 -0.021,-21.232 17.0399993,-38.4629999 38.0769993,-38.4519999 21.047,-0.01 38.107,17.2209999 38.131,38.4519999 -0.024,21.276 -17.084,38.504 -38.131,38.504 z"
     id="path3" /><path
     d="m 39.761537,28.429012 h -2.525 v -13.07 l -23.796,19.678 23.795,19.682 v -13.07 c 0,0 3.372,0 7.219,0 9.329,0 19.512,2.748 14.719,16.074 -1.03,2.857 2.045,3.533 3.25,1.625 4.799,-7.599 9.431,-30.919 -22.662,-30.919 z"
     id="path5" /></svg>
