<?xml version="1.0" encoding="UTF-8" standalone="no"?>
<!-- Created with Inkscape (http://www.inkscape.org/) -->

<svg
   xmlns:dc="http://purl.org/dc/elements/1.1/"
   xmlns:cc="http://creativecommons.org/ns#"
   xmlns:rdf="http://www.w3.org/1999/02/22-rdf-syntax-ns#"
   xmlns:svg="http://www.w3.org/2000/svg"
   xmlns="http://www.w3.org/2000/svg"
   version="1.1"
   width="347.74625"
   height="373.035"
   id="svg2"
   xml:space="preserve"><metadata
     id="metadata8"><rdf:RDF><cc:Work
         rdf:about=""><dc:format>image/svg+xml</dc:format><dc:type
           rdf:resource="http://purl.org/dc/dcmitype/StillImage" /><dc:title></dc:title></cc:Work></rdf:RDF></metadata><defs
     id="defs6"><clipPath
       id="clipPath24"><path
         d="m 0,566.93 566.93,0 L 566.93,0 0,0 0,566.93 z"
         id="path26" /></clipPath></defs><g
     transform="matrix(1.25,0,0,-1.25,-168.8755,597.89638)"
     id="g10"><g
       transform="translate(352.791,238.1709)"
       id="g12"><path
         d="m 0,0 -21.262,5.715 0,55.792 L 0,67.616 0,0 z m -81.222,96.288 -19.103,-5.679 0.729,68.146 18.374,-5.897 0,-56.57 z m 110.563,32.867 -50.502,-15.013 0,71.614 -160.603,52.463 -34.101,-12.281 0,-33.569 53.423,-14.043 0,-138.262 34.106,-9.304 47.114,13.531 0,-71.495 108.416,-29.25 31.488,10.645 0,166.733 -29.341,8.231 z"
         id="path14"
         style="fill:#000;fill-opacity:0.8;fill-rule:nonzero;stroke:none" /></g><path
       d="m 404.8604,192.2871 -24.913,-8.678 -102.083,27.616 25.615,8.926 101.381,-27.864 z m -103.27,96.861 0,-65.789 -28.196,-9.826 0,67.553 25.058,7.197 3.138,0.865 z m -162.84,143.989 0,29.688 30.452,10.967 0,-29.689 -30.452,-10.966 z m 79.381,-6.276 -27.818,-8.468 -47.246,12.418 28.016,10.089 47.048,-14.039 z m 162.176,-61.981 0,-132.212 -25.692,6.905 0,90.499 -162.442,-49.376 0,134.45 30.456,9.27 0,-106.409 157.678,46.873 z m -50.602,-11.208 -24.451,-7.296 0.351,56.985 -53.104,16.947 -0.989,0.33 0,-89.982 -4.46,-1.582 -20.773,-6.176 0,105.343 -53.427,16.181 0,29.473 52.05,-16.571 104.803,-34.716 0,-68.936 z m -27.773,45.803 -0.335,-54.089 -28.203,-8.478 0,52.816 28.538,9.751 z m -3.981,2.494 -26.398,-9.019 -16.473,5.286 0.05,17.333 42.821,-13.6 z m -28.207,-12.24 0,-53.911 -14.851,-4.414 0.178,63.309 14.673,-4.984 z m -72.805,-111.4 154.028,46.818 0,-17.985 -126.526,-36.336 -27.502,7.503 z m 136.413,-33.045 0,53.023 17.615,5.057 0,-62.813 -17.615,4.733 z m -28.114,44.947 24.467,7.028 0,-54.776 54.251,-14.574 0,137.01 25.692,-7.207 0,-162.955 -104.41,28.694 0,66.78 z m 76.879,78.994 -48.664,-14.467 -0.101,70.487 -107.898,35.741 -54.22,17.254 -0.243,0.077 -35.891,-12.926 0,-36.257 53.423,-14.045 0,-138.25 35.739,-9.749 0.203,-0.055 45.279,13.003 0,-70.486 110.004,-29.663 33.549,11.109 0,169.479 -31.18,8.748 z"
       id="path66"
       style="fill:#ffffff;fill-opacity:1;fill-rule:nonzero;stroke:none" /></g></svg>
